<?xml version="1.0" encoding="UTF-8"?>
<!DOCTYPE svg PUBLIC "-//W3C//DTD SVG 1.1//EN" "http://www.w3.org/Graphics/SVG/1.1/DTD/svg11.dtd">
<svg xmlns="http://www.w3.org/2000/svg" version="1.1" width="136px" height="175px" style="shape-rendering:geometricPrecision; text-rendering:geometricPrecision; image-rendering:optimizeQuality; fill-rule:evenodd; clip-rule:evenodd" xmlns:xlink="http://www.w3.org/1999/xlink">
<g><path style="opacity:1" fill="#fdfcfb" d="M -0.5,-0.5 C 44.8333,-0.5 90.1667,-0.5 135.5,-0.5C 135.5,57.8333 135.5,116.167 135.5,174.5C 90.1667,174.5 44.8333,174.5 -0.5,174.5C -0.5,116.167 -0.5,57.8333 -0.5,-0.5 Z"/></g>
<g><path style="opacity:1" fill="#49392c" d="M 23.5,3.5 C 25.3934,10.5508 30.06,14.7174 37.5,16C 40.1667,16.1667 42.8333,16.3333 45.5,16.5C 64.8317,15.57 84.165,15.4034 103.5,16C 111.998,15.8258 117.164,11.6591 119,3.5C 122.779,8.401 123.446,13.7343 121,19.5C 117.833,24 114,27.8333 109.5,31C 116.073,38.6406 117.239,47.1406 113,56.5C 104.926,66.6436 95.0923,68.8102 83.5,63C 80.2379,60.408 77.7379,57.2413 76,53.5C 75.7813,57.1925 76.6146,60.6925 78.5,64C 76.3779,67.6256 74.0446,71.1256 71.5,74.5C 69.1667,71.1667 66.8333,67.8333 64.5,64.5C 66.0802,61.2772 66.9135,57.9438 67,54.5C 59.3984,66.2768 49.2318,69.1102 36.5,63C 25.913,53.1349 24.913,42.4682 33.5,31C 26.2041,26.8775 21.8707,20.7108 20.5,12.5C 20.9091,9.27267 21.9091,6.27267 23.5,3.5 Z"/></g>
<g><path style="opacity:1" fill="#f3f0ec" d="M 44.5,31.5 C 59.951,32.3944 64.7843,40.0611 59,54.5C 48.9056,62.4921 40.9056,60.8254 35,49.5C 34.1628,45.7054 34.4961,42.0387 36,38.5C 38.4412,35.5464 41.2745,33.2131 44.5,31.5 Z"/></g>
<g><path style="opacity:1" fill="#483b2f" d="M 45.5,35.5 C 55.212,34.7094 59.0454,39.0427 57,48.5C 53.1598,44.1723 50.3265,44.6723 48.5,50C 48.5852,51.1074 48.9186,52.1074 49.5,53C 43.8963,53.414 40.5629,50.7473 39.5,45C 40.1418,40.8634 42.1418,37.6967 45.5,35.5 Z"/></g>
<g><path style="opacity:1" fill="#f6f4f0" d="M 91.5,31.5 C 106.78,32.6092 111.613,40.2758 106,54.5C 97.5833,61.7381 89.9167,61.0714 83,52.5C 79.2175,42.7406 82.0509,35.7406 91.5,31.5 Z"/></g>
<g><path style="opacity:1" fill="#493c30" d="M 91.5,35.5 C 99.9863,35.1514 103.82,39.1514 103,47.5C 101.55,52.3079 98.3838,54.1412 93.5,53C 94.9001,45.5617 92.5668,44.0617 86.5,48.5C 85.3483,45.8938 85.1816,43.2272 86,40.5C 87.7297,38.5981 89.563,36.9314 91.5,35.5 Z"/></g>
<g><path style="opacity:1" fill="#48382b" d="M 30.5,129.5 C 31.8281,124.363 32.3281,119.03 32,113.5C 31.0995,118.501 30.2662,123.501 29.5,128.5C 29.313,130.564 28.813,132.564 28,134.5C 25.1218,132.066 23.2885,129.066 22.5,125.5C 24.0429,119.378 24.5429,113.045 24,106.5C 22.9487,111.474 22.1154,116.474 21.5,121.5C 21.719,122.675 21.3857,123.675 20.5,124.5C 19.4164,123.335 18.5831,122.002 18,120.5C 17.8317,114.505 17.9983,108.505 18.5,102.5C 19.8882,97.7058 20.3882,92.7058 20,87.5C 19.118,92.179 18.2847,96.8456 17.5,101.5C 17.2989,105.574 16.6322,109.574 15.5,113.5C 9.51703,94.6093 14.1837,78.776 29.5,66C 31.8878,65.1349 33.3878,65.9683 34,68.5C 38.3307,77.8255 41.664,87.4922 44,97.5C 46.4655,111.997 45.7988,126.33 42,140.5C 41.7351,142.651 40.7351,144.318 39,145.5C 36.0488,143.553 33.3822,141.219 31,138.5C 30.502,135.518 30.3354,132.518 30.5,129.5 Z"/></g>
<g><path style="opacity:1" fill="#48382b" d="M 128.5,114.5 C 126.695,107.365 125.195,100.032 124,92.5C 124.312,101.489 124.812,110.489 125.5,119.5C 123.659,125.93 122.325,125.93 121.5,119.5C 120.885,114.474 120.051,109.474 119,104.5C 118.453,110.384 118.953,116.051 120.5,121.5C 121.414,127.005 119.58,131.338 115,134.5C 114.498,131.487 113.998,128.487 113.5,125.5C 112.605,120.858 111.772,116.191 111,111.5C 110.53,117.046 111.03,122.379 112.5,127.5C 112.665,131.182 112.499,134.848 112,138.5C 109.333,141.167 106.667,143.833 104,146.5C 96.6012,128.259 95.6012,109.592 101,90.5C 103.7,81.3911 107.367,72.7244 112,64.5C 120.49,71.4926 126.49,80.1593 130,90.5C 130.827,98.5963 130.327,106.596 128.5,114.5 Z"/></g>
<g><path style="opacity:1" fill="#9e8f82" d="M 18.5,102.5 C 18.5,101.833 18.1667,101.5 17.5,101.5C 18.2847,96.8456 19.118,92.179 20,87.5C 20.3882,92.7058 19.8882,97.7058 18.5,102.5 Z"/></g>
<g><path style="opacity:1" fill="#d3cdc7" d="M 128.5,114.5 C 127.308,116.113 126.308,117.78 125.5,119.5C 124.812,110.489 124.312,101.489 124,92.5C 125.195,100.032 126.695,107.365 128.5,114.5 Z"/></g>
<g><path style="opacity:1" fill="#b4a79c" d="M 121.5,119.5 C 120.662,119.842 120.328,120.508 120.5,121.5C 118.953,116.051 118.453,110.384 119,104.5C 120.051,109.474 120.885,114.474 121.5,119.5 Z"/></g>
<g><path style="opacity:1" fill="#bbb2a9" d="M 22.5,125.5 C 22.7678,123.901 22.4345,122.568 21.5,121.5C 22.1154,116.474 22.9487,111.474 24,106.5C 24.5429,113.045 24.0429,119.378 22.5,125.5 Z"/></g>
<g><path style="opacity:1" fill="#a1978e" d="M 113.5,125.5 C 112.662,125.842 112.328,126.508 112.5,127.5C 111.03,122.379 110.53,117.046 111,111.5C 111.772,116.191 112.605,120.858 113.5,125.5 Z"/></g>
<g><path style="opacity:1" fill="#b7aaa3" d="M 30.5,129.5 C 30.5,128.833 30.1667,128.5 29.5,128.5C 30.2662,123.501 31.0995,118.501 32,113.5C 32.3281,119.03 31.8281,124.363 30.5,129.5 Z"/></g>
<g><path style="opacity:1" fill="#4c3e33" d="M 53.5,161.5 C 52.5489,160.081 52.2155,158.415 52.5,156.5C 51.5,156.5 50.5,156.5 49.5,156.5C 48.7544,161.479 48.0878,161.146 47.5,155.5C 49.1916,147.487 53.8583,144.987 61.5,148C 65.5802,151.579 66.4135,155.745 64,160.5C 63.7978,158.744 63.2978,157.078 62.5,155.5C 61.1667,163.5 59.8333,163.5 58.5,155.5C 57.9457,164.146 56.6123,164.48 54.5,156.5C 53.5481,158.045 53.2148,159.712 53.5,161.5 Z"/></g>
<g><path style="opacity:1" fill="#4c4036" d="M 83.5,146.5 C 91.7889,146.29 95.9556,150.29 96,158.5C 95.3333,159.167 94.6667,159.833 94,160.5C 93.7978,158.744 93.2978,157.078 92.5,155.5C 91.1667,163.5 89.8333,163.5 88.5,155.5C 87.6858,157.766 87.1858,160.1 87,162.5C 86.5045,160.527 86.3379,158.527 86.5,156.5C 85.5,156.5 84.5,156.5 83.5,156.5C 83.1667,163.167 82.8333,163.167 82.5,156.5C 81.5,156.5 80.5,156.5 79.5,156.5C 79.2993,161.648 78.6326,161.648 77.5,156.5C 77.4947,151.863 79.4947,148.53 83.5,146.5 Z"/></g>
<g><path style="opacity:1" fill="#493d34" d="M 67.5,152.5 C 70.5719,152.183 73.5719,152.516 76.5,153.5C 75.2203,155.702 75.2203,157.868 76.5,160C 73.1667,160.667 69.8333,160.667 66.5,160C 67.435,157.619 67.7683,155.119 67.5,152.5 Z"/></g>
<g><path style="opacity:1" fill="#dcd8d2" d="M 47.5,155.5 C 48.0878,161.146 48.7544,161.479 49.5,156.5C 50.5,156.5 51.5,156.5 52.5,156.5C 52.2155,158.415 52.5489,160.081 53.5,161.5C 52.2196,162.931 50.5529,163.598 48.5,163.5C 47.5272,161.851 46.5272,160.184 45.5,158.5C 46.1667,157.5 46.8333,156.5 47.5,155.5 Z"/></g>
<g><path style="opacity:1" fill="#4d3f35" d="M 45.5,158.5 C 46.5272,160.184 47.5272,161.851 48.5,163.5C 39.3651,164.648 30.8651,167.648 23,172.5C 22.3333,171.833 22.3333,171.167 23,170.5C 29.0434,164.644 36.0434,160.31 44,157.5C 44.7648,157.57 45.2648,157.903 45.5,158.5 Z"/></g>
<g><path style="opacity:1" fill="#4f4238" d="M 97.5,157.5 C 106.863,160.017 114.863,164.851 121.5,172C 112.899,168.087 103.899,164.921 94.5,162.5C 95.9524,161.06 96.9524,159.394 97.5,157.5 Z"/></g>
</svg>
